<svg width="29" height="25" xmlns="http://www.w3.org/2000/svg" xmlns:xlink="http://www.w3.org/1999/xlink">
  <defs>
    <path d="M10.5 18C16.299 18 21 13.97 21 9s-4.701-9-10.5-9S0 4.03 0 9c0 2.774 1.464 5.254 3.766 6.905 1.592.837-1.523 4.405-1.438 4.391C6.672 20.02 6.22 17.813 9.408 18H10.5z" id="a"/>
  </defs>
  <g fill="none" fill-rule="evenodd">
    <path d="M8.65 19.55a16.41 16.41 0 0 0 2.772 1.508c3.15 1.25 6.163 1.471 9.037.664 1.54 1.938 3.166 3.26 5.581 2.95-.93-.851-1.563-2.28-1.899-4.283 9.314-7.12 1.622-15.485-2.06-16.402-.305-.063-1.056-.204-1.832-.177" fill="#007AFF"/>
    <g transform="translate(1 1)">
      <use fill="#007AFF" xlink:href="#a"/>
      <path stroke="#FFF" d="M10.5 18.5H9.38c-1.073-.064-1.648.12-2.467.664-.057.038-.477.324-.612.412-1.117.729-2.195 1.108-3.891 1.214-.398-.036-.398-.036-.583-.465.018-.186.018-.186.043-.237.033-.064.033-.064.051-.091.033-.049.033-.049.07-.099l.213-.281c.243-.323.45-.611.65-.918.209-.32.387-.623.527-.907.41-.828.43-1.297.093-1.48C.978 14.522-.5 11.868-.5 9c0-5.265 4.94-9.5 11-9.5s11 4.235 11 9.5-4.94 9.5-11 9.5z"/>
    </g>
  </g>
</svg>
