<svg width="26" height="26" xmlns="http://www.w3.org/2000/svg">
  <path d="M26 13c0 7.18-5.82 13-13 13S0 20.18 0 13 5.82 0 13 0s13 5.82 13 13zm-5.235 9.096a3.17 3.17 0 0 0-.015-.006c-1.49-.611-3.055-.596-4.59-1.294-.13-1.044-.21-2.3-.158-3.464.22-.306.407-.604.557-.844.628-1 .782-2.02.793-2.719.189-.134.366-.277.499-.416.489-.511.376-1.881.236-2.249a.518.518 0 0 0-.322-.297c.123-.438.226-.972.226-1.532 0-1.395.067-2.198-.312-2.984-.792-1.639-2.847-2.612-4.407-2.612-.001.08-.004.17-.01.266l-.002-.266c-2.08 0-4.136.973-4.927 2.612-.38.786-.312 1.589-.312 2.984 0 .56.103 1.094.226 1.532a.518.518 0 0 0-.323.297c-.139.368-.252 1.738.237 2.25.132.138.31.28.498.415.012.7.165 1.718.793 2.719.15.24.338.538.557.844a21.548 21.548 0 0 1-.157 3.464c-1.536.698-3.1.683-4.59 1.294a3.17 3.17 0 0 0-.024.01A11.913 11.913 0 0 0 13 24.96c2.964 0 5.676-1.078 7.765-2.864z" fill="#007AFF" fill-rule="nonzero"/>
</svg>