<svg width="26" height="26" xmlns="http://www.w3.org/2000/svg">
  <g fill="#007AFF" fill-rule="evenodd">
    <path d="M8.303 19.885l4.084-7.074-4.084-7.073A8.482 8.482 0 0 0 4.51 12.81a8.482 8.482 0 0 0 3.793 7.074zm.325.205c.088.053.178.105.268.155l-.268-.155zm.594.326a8.49 8.49 0 0 0 12.251-7.074h-8.167l-4.084 7.074zm0-15.21l4.084 7.074h8.167A8.49 8.49 0 0 0 9.222 5.206zm-.326.171c-.09.05-.18.102-.268.155l.268-.155zM13 22.893c-5.568 0-10.082-4.514-10.082-10.082C2.918 7.243 7.432 2.73 13 2.73c5.568 0 10.082 4.514 10.082 10.082 0 5.568-4.514 10.082-10.082 10.082z"/>
    <path d="M.45 12.211l2.388-.367a.53.53 0 0 1 .611.524v.886a.53.53 0 0 1-.611.524L.45 13.411a.53.53 0 0 1-.45-.525v-.15a.53.53 0 0 1 .45-.525zm.962-4.256l2.37.472a.53.53 0 0 1 .394.701l-.302.832a.53.53 0 0 1-.754.284L1.002 9.082a.53.53 0 0 1-.244-.646l.052-.142a.53.53 0 0 1 .602-.339zm2.36-3.67l2.065 1.253a.53.53 0 0 1 .131.795l-.57.678a.53.53 0 0 1-.804.009L3 5.204a.53.53 0 0 1-.008-.691l.097-.116a.53.53 0 0 1 .682-.112zm3.472-2.643l1.512 1.885a.53.53 0 0 1-.148.791l-.767.443a.53.53 0 0 1-.76-.267l-.876-2.252a.53.53 0 0 1 .23-.652l.13-.075a.53.53 0 0 1 .68.127zM11.411.348l.777 2.287a.53.53 0 0 1-.41.693l-.873.154a.53.53 0 0 1-.622-.51L10.23.555a.53.53 0 0 1 .438-.534l.149-.027a.53.53 0 0 1 .594.353zm4.359.208l-.053 2.415a.53.53 0 0 1-.622.511l-.872-.154a.53.53 0 0 1-.41-.693l.776-2.287a.53.53 0 0 1 .594-.353l.149.027a.53.53 0 0 1 .438.534zm4.025 1.686l-.876 2.252a.53.53 0 0 1-.76.267l-.767-.443a.53.53 0 0 1-.148-.791l1.512-1.885a.53.53 0 0 1 .679-.127l.13.075a.53.53 0 0 1 .23.652zm3.204 2.962L21.406 7.02a.53.53 0 0 1-.805-.009l-.57-.678a.53.53 0 0 1 .132-.795l2.065-1.253a.53.53 0 0 1 .682.112l.097.116a.53.53 0 0 1-.008.69zm2 3.878l-2.119 1.162a.53.53 0 0 1-.754-.284l-.302-.832a.53.53 0 0 1 .395-.701l2.37-.472a.53.53 0 0 1 .601.339l.052.142a.53.53 0 0 1-.244.646zm.551 4.329l-2.388.367a.53.53 0 0 1-.611-.524v-.886a.53.53 0 0 1 .611-.524l2.388.367a.53.53 0 0 1 .45.525v.15a.53.53 0 0 1-.45.525zm-.962 4.256l-2.37-.471a.53.53 0 0 1-.394-.702l.302-.832a.53.53 0 0 1 .754-.284l2.118 1.162c.23.126.333.4.244.646l-.052.142a.53.53 0 0 1-.602.34zm-2.36 3.67l-2.065-1.253a.53.53 0 0 1-.131-.794l.57-.679a.53.53 0 0 1 .804-.009L23 20.42a.53.53 0 0 1 .008.69l-.097.116a.53.53 0 0 1-.682.113zm-3.472 2.643l-1.512-1.885a.53.53 0 0 1 .148-.791l.767-.443a.53.53 0 0 1 .76.267l.876 2.252a.53.53 0 0 1-.23.652l-.13.075a.53.53 0 0 1-.68-.127zm-4.167 1.295l-.777-2.288a.53.53 0 0 1 .41-.693l.873-.154a.53.53 0 0 1 .622.511l.053 2.415a.53.53 0 0 1-.438.534l-.149.027a.53.53 0 0 1-.594-.352zm-4.359-.209l.053-2.415a.53.53 0 0 1 .622-.51l.872.153a.53.53 0 0 1 .41.693l-.776 2.288a.53.53 0 0 1-.594.352l-.149-.027a.53.53 0 0 1-.438-.534zM6.205 23.38l.876-2.252a.53.53 0 0 1 .76-.267l.767.443a.53.53 0 0 1 .148.791L7.244 23.98a.53.53 0 0 1-.679.127l-.13-.075a.53.53 0 0 1-.23-.652zm-3.204-2.961l1.593-1.817a.53.53 0 0 1 .805.01l.57.678a.53.53 0 0 1-.132.794l-2.065 1.254a.53.53 0 0 1-.682-.113l-.097-.115a.53.53 0 0 1 .008-.691zm-2-3.88l2.119-1.161a.53.53 0 0 1 .754.284l.302.832a.53.53 0 0 1-.395.702l-2.37.471a.53.53 0 0 1-.601-.339l-.052-.142a.53.53 0 0 1 .244-.646z" fill-rule="nonzero"/>
  </g>
</svg>
