<svg xmlns="http://www.w3.org/2000/svg" width="48" height="48" viewBox="0 0 512.003 512.003">
    <g fill="#0981e1">
        <path d="M401.069 290.135c-39.134 0-73.6 20.372-93.353 51.066l-31.424-17.138a22.554 22.554 0 0 1-11.759-19.806v-28.228c5.717-7.484 22.076-30.814 29.892-61.764 8.064-6.468 12.774-16.145 12.774-26.53v-34.133c0-8.218-3.072-16.179-8.533-22.4V85.813c.478-4.693 2.355-32.64-17.852-55.689C263.287 10.13 234.846.001 196.267.001c-38.571 0-67.021 10.129-84.54 30.123-20.215 23.049-18.338 50.995-17.86 55.689v45.389c-5.461 6.221-8.533 14.182-8.533 22.4v34.133c0 10.385 4.719 20.062 12.774 26.53 7.817 30.95 24.183 54.281 29.892 61.764v28.228c0 8.26-4.506 15.846-11.75 19.806l-76.134 41.523A76.952 76.952 0 0 0 0 433.17v36.164a8.536 8.536 0 0 0 8.533 8.533h312.565c20.2 21.025 48.583 34.133 79.971 34.133 61.167 0 110.933-49.766 110.933-110.933s-49.766-110.932-110.933-110.932zM17.067 460.801V433.17a59.881 59.881 0 0 1 31.224-52.599l76.134-41.532a39.601 39.601 0 0 0 20.642-34.782v-31.189c0-1.988-.7-3.934-1.98-5.47-.213-.247-21.171-25.737-29.099-60.297a8.539 8.539 0 0 0-3.686-5.257c-4.949-3.2-7.902-8.542-7.902-14.31v-34.133c0-4.787 2.031-9.25 5.726-12.587a8.513 8.513 0 0 0 2.807-6.332V85.335c0-.375-.026-.742-.077-1.118-.026-.239-2.927-23.876 13.696-42.837 14.148-16.137 38.272-24.311 71.714-24.311 33.323 0 57.404 8.124 71.569 24.141 16.606 18.782 13.867 42.803 13.841 43.008a8.226 8.226 0 0 0-.077 1.118v49.348a8.522 8.522 0 0 0 2.816 6.332c3.686 3.336 5.717 7.799 5.717 12.587v34.133c0 5.769-2.944 11.11-7.893 14.31a8.499 8.499 0 0 0-3.686 5.257c-7.936 34.56-28.894 60.049-29.107 60.297a8.615 8.615 0 0 0-1.98 5.47v31.189a39.61 39.61 0 0 0 20.651 34.782l31.498 17.185c-6.089 13.72-9.479 28.893-9.479 44.844 0 21.976 6.424 42.48 17.492 59.733H17.067zm384.002 34.134c-27.378 0-52.055-11.786-69.229-30.548a8.565 8.565 0 0 0-1.241-1.387c-14.554-16.54-23.396-38.222-23.396-61.931 0-51.755 42.112-93.867 93.867-93.867s93.867 42.112 93.867 93.867c-.001 51.754-42.113 93.866-93.868 93.866z"/>
        <path d="M452.269 392.535h-42.667v-42.667c0-4.71-3.823-8.533-8.533-8.533s-8.533 3.823-8.533 8.533v42.667h-42.667c-4.71 0-8.533 3.823-8.533 8.533s3.823 8.533 8.533 8.533h42.667v42.667c0 4.71 3.823 8.533 8.533 8.533s8.533-3.823 8.533-8.533v-42.667h42.667c4.71 0 8.533-3.823 8.533-8.533s-3.822-8.533-8.533-8.533z"/>
    </g>
</svg>
